<?xml version="1.0" encoding="UTF-8"?>
<svg id="Calque_2" data-name="Calque 2" xmlns="http://www.w3.org/2000/svg" viewBox="0 0 480.08 301.81">
  <defs>
    <style>
      .cls-1 {
        fill: #ec6568;
      }

      .cls-2 {
        fill: #3d3636;
      }

      .cls-3 {
        fill: #add7f4;
      }

      .cls-4 {
        fill: #e73740;
      }
    </style>
  </defs>
  <g id="telecabine">
    <g>
      <path class="cls-1" d="m7.91,2.23v299.57h466.72V2.23H7.91Zm354.7,249.62H125.07V38.91h237.54v212.94Z"/>
      <path class="cls-3" d="m96.76,43.26h16.43c5.04,0,9.12,12.64,9.12,28.24v99.56c0,15.53-4.07,28.11-9.08,28.11h-16.47V43.26Z"/>
      <path class="cls-3" d="m390.85,199.17h-16.43c-5.04,0-9.12-12.64-9.12-28.24v-99.56c0-15.53,4.07-28.11,9.08-28.11h16.47v155.91Z"/>
      <polygon class="cls-4" points="94 251.85 6.05 301.81 476.33 301.81 390.42 251.85 94 251.85"/>
      <polygon class="cls-3" points="80.76 43.26 80.76 199.17 8.59 230.66 8.59 18.23 80.76 43.26"/>
      <polygon class="cls-3" points="402.46 202.4 402.46 46.49 474.63 15 474.63 227.43 402.46 202.4"/>
      <polygon class="cls-2" points="399.06 169 474.63 170.4 474.63 180.62 399.06 174.81 399.06 169"/>
      <polygon class="cls-2" points="82.89 172 7.74 180.13 6.46 170 82.16 166.23 82.89 172"/>
      <polygon class="cls-4" points="89.78 30 0 0 480.08 0 392.38 30 89.78 30"/>
    </g>
  </g>
</svg>