<?xml version="1.0" encoding="UTF-8"?>
<svg id="Calque_2" data-name="Calque 2" xmlns="http://www.w3.org/2000/svg" viewBox="0 0 83.39 84.3">
  <defs>
    <style>
      .cls-1 {
        fill: #2c4899;
      }

      .cls-2 {
        fill: #79cbe7;
      }

      .cls-3 {
        fill: #262857;
      }
    </style>
  </defs>
  <g id="Calque_1-2" data-name="Calque 1">
    <g>
      <rect class="cls-2" x="38.57" y="33.22" width="30.76" height="30.76"/>
      <rect class="cls-2" x="29.27" y="57.61" width="49.55" height="24.24"/>
      <path class="cls-3" d="M82.34,54.8h-10.21c-.61,0-1.09-.51-1.05-1.12l1.38-24.46c.05-.8-.79-1.36-1.51-1.01l-9.1,4.35c-.6,.29-1.31-.05-1.48-.69L52.53,1.47c-.23-.9-1.44-1.08-1.92-.29l-11.95,19.47c-.35,.57-1.14,.68-1.63,.21l-9.58-9.17c-.59-.57-1.57-.27-1.76,.53l-6.91,29.94c-.18,.8-1.16,1.09-1.75,.53l-6.55-6.18c-.61-.57-1.61-.25-1.76,.57L.02,83.05c-.12,.65,.38,1.25,1.04,1.25H82.34c.58,0,1.06-.47,1.06-1.06v-27.39c0-.58-.47-1.06-1.06-1.06Zm-37.07-2.16c1.3-4.14,3.69-10.4,7.63-11.56,2.85-.84,5.12,1.58,6.81,3.52,2.29,2.61,5.13,4.61,7.16,7.44,2.06,1.71,1.31,6.11-2.23,6.33-5.93,.35-11.88,.24-17.81,.77-3.88,.35-4.37-4.81-1.57-6.49Zm-7.72,8.59c4.51,0,4.5,7,0,7s-4.5-7,0-7Zm.19,16.29c-4.51,0-4.5-7,0-7s4.5,7,0,7Zm8.52-.19c-4.51,0-4.5-7,0-7s4.5,7,0,7Zm.19-8.71c-4.51,0-4.5-7,0-7s4.5,7,0,7Zm6.82,10.47c-.13-.52-.16-1.06-.08-1.59,0-.28,0-.56-.01-.85-.26-.75-.29-1.57-.08-2.34-.17-.63-.18-1.31-.04-1.95-.02-.8-.04-1.61-.04-2.41-.02-4.51,6.98-4.5,7,0,.01,2.84,.18,5.68,.19,8.52,.02,4.29-6.3,4.48-6.94,.62Zm12.15-17.67c4.51,0,4.5,7,0,7s-4.5-7,0-7Zm.58,15.9c-4.51,0-4.5-7,0-7s4.5,7,0,7Zm7.16-16.1c4.51,0,4.5,7,0,7s-4.5-7,0-7Zm.97,15.71c-4.51,0-4.5-7,0-7s4.5,7,0,7Z"/>
      <path class="cls-1" d="M82.1,57.72l-2.83,9.75c-.17,.58-1,.52-1.09-.08l-5.38-37.68c-.09-.62-.97-.65-1.1-.04l-2.56,12.09c-.12,.54-.87,.6-1.07,.08L52.52,.36c-.21-.55-1.01-.45-1.07,.13l-2.3,19.35s-.01,.07-.02,.1l-11.49,35.97c-.14,.45-.75,.53-1,.13l-7.54-11.98c-.24-.39-.83-.33-.99,.1l-14.79,38.54c-.14,.36,.13,.76,.52,.76H82.64c.31,0,.56-.25,.56-.56v-25.03c0-.64-.91-.77-1.09-.16Zm-36.83-5.08c2.13-4,4-10.15,7.63-11.56,2.77-1.07,5.12,1.58,6.81,3.52,2.29,2.61,5.13,4.61,7.16,7.44,2.06,1.71,1.31,6.11-2.23,6.33-5.93,.35-11.88,.24-17.81,.77-3.88,.35-3.27-3.95-1.57-6.49Zm-7.72,8.59c4.51,0,4.5,7,0,7s-4.5-7,0-7Zm.19,16.29c-4.51,0-4.5-7,0-7s4.5,7,0,7Zm8.52-.19c-4.51,0-4.5-7,0-7s4.5,7,0,7Zm.19-8.71c-4.51,0-4.5-7,0-7s4.5,7,0,7Zm6.82,10.47c-.13-.52-.16-1.06-.08-1.59,0-.28,0-.56-.01-.85-.26-.75-.29-1.57-.08-2.34-.17-.63-.18-1.31-.04-1.95-.02-.8-.04-1.61-.04-2.41-.02-4.51,6.98-4.5,7,0,.01,2.84,.18,5.68,.19,8.52,.02,4.29-6.3,4.48-6.94,.62Zm12.15-17.67c4.51,0,4.5,7,0,7s-4.5-7,0-7Zm.58,15.9c-4.51,0-4.5-7,0-7s4.5,7,0,7Zm7.16-16.1c4.51,0,4.5,7,0,7s-4.5-7,0-7Zm.97,15.71c-4.51,0-4.5-7,0-7s4.5,7,0,7Z"/>
    </g>
  </g>
</svg>