<?xml version="1.0" encoding="UTF-8"?>
<svg id="Calque_2" data-name="Calque 2" xmlns="http://www.w3.org/2000/svg" viewBox="0 0 595.28 353.96">
  <defs>
    <style>
      .cls-1 {
        fill: #2c4899;
      }

      .cls-2 {
        fill: #262857;
      }
    </style>
  </defs>
  <g id="Calque_1-2" data-name="Calque 1">
    <g>
      <path class="cls-2" d="m363.5,2.41l-92.06,108.62c-2.24,2.84-6.64,2.54-8.47-.58l-18.84-32.12c-1.8-3.08-6.12-3.43-8.39-.68l-27.68,33.39c-2.33,2.81-6.78,2.36-8.5-.86l-7.06-13.25c-2.04-3.83-7.63-3.56-9.29.45l-17.46,42.21c-2.02,4.89-9.23,3.9-9.86-1.36l-9.43-79.2c-.49-4.14,1.92-4.66-1.17-1.86l-52.91,39.73c-2.22,2-5.66,1.7-7.5-.65l-23.85-30.56c-2.42-3.11-7.3-2.44-8.8,1.2l-17.59,42.51c-1.54,3.73-6.59,4.31-8.94,1.02l-4.5-6.3c-2.36-3.3-7.42-2.7-8.95,1.05L.38,134.39C.13,135,0,135.66,0,136.32v200.55c0,2.84,2.3,5.14,5.14,5.14h580.6c2.78,0,5.06-2.22,5.14-5l4.39-156.75v-39.11c0-3.71-3.82-6.2-7.22-4.7l-44.28,19.52c-2.35,1.04-5.1.18-6.45-2l-16.78-27.17c-1.33-2.16-4.04-3.02-6.37-2.03l-33.94,14.33c-3.59,1.52-7.5-1.36-7.12-5.23l12.74-45.34c.35-3.58-11.2-7.53-14.67-6.59l-23.14,6.24c-2.49.67-5.1-.61-6.09-2.99l-16.87-40.64c-1.52-3.67-6.46-4.3-8.85-1.13l-21.57,28.57c-2.55,3.38-7.86,2.4-9.04-1.66L363.5,2.41"/>
      <path class="cls-1" d="m3.94,353.96h587.39c2.18,0,3.94-1.76,3.94-3.94v-161.75l-68.42,46.78c-2.28,1.56-5.4.35-6.05-2.32l-34.96-144.19c-.9-3.73-6.07-4.1-7.49-.53l-28.3,71.13c-1.28,3.22-5.8,3.34-7.24.19L370.71,2.3c-1.43-3.12-5.88-3.04-7.21.12l-99.46,236.52c-1.48,3.51-6.58,3.09-7.47-.61l-20.42-85.51c-.75-3.16-4.8-4.1-6.87-1.6l-45.46,54.91c-2.16,2.6-6.37,1.46-6.92-1.87l-24.12-146.12c-.64-3.86-5.9-4.53-7.49-.96l-59.9,134.88c-1.5,3.37-6.39,3.02-7.39-.52l-16.58-58.38c-1.01-3.56-5.92-3.89-7.4-.5l-14.26,32.6c-1,2.28-3.82,3.07-5.86,1.66l-14.62-10.17c-2.06-1.43-4.91-.6-5.88,1.7L0,190.23v159.78c0,2.18,1.77,3.94,3.94,3.94Z"/>
    </g>
  </g>
</svg>