<?xml version="1.0" encoding="UTF-8"?>
<svg id="Calque_2" data-name="Calque 2" xmlns="http://www.w3.org/2000/svg" viewBox="0 0 292.76 884.53">
  <defs>
    <style>
      .cls-1 {
        fill: #b7b7b7;
      }

      .cls-2 {
        fill: #fff;
      }

      .cls-3 {
        stroke: #b2b2b2;
        stroke-width: 3px;
      }

      .cls-3, .cls-4 {
        fill: none;
        stroke-miterlimit: 10;
      }

      .cls-5 {
        fill: #73a6da;
      }

      .cls-4 {
        stroke: #4b2c23;
        stroke-width: 8px;
      }
    </style>
  </defs>
  <g id="pente">
    <g>
      <path class="cls-1" d="m64.1,58.04S-4.42,117.17.23,214.4s25.55,92.05,47.61,172.16,44.13,99.82,3.48,235.16c-40.65,135.34-23.99,168.18-14.32,178.7,9.67,10.51-3.1,85.41,77.02,84.09s142.84,1.31,153.29-45.99c10.45-47.3-4.65-89.35-29.03-103.8s76.65-60.44,49.94-128.77,11.61-126.14-26.71-181.32,33.68-211.54-1.16-253.59C225.52,129,210.08-6.34,146.38.23s-82.28,57.81-82.28,57.81Z"/>
      <path class="cls-2" d="m71.25,79.93S8.68,133.92,12.93,222.7s23.33,84.05,43.48,157.2c20.15,73.15,40.29,91.15,3.18,214.72-37.11,123.58-21.9,153.57-13.07,163.17s-2.83,77.99,70.33,76.79c73.17-1.2,130.43,1.2,139.97-41.99s-4.24-81.58-26.51-94.78c-22.27-13.2,69.99-55.19,45.6-117.58-24.39-62.39,10.6-115.18-24.39-165.57-34.99-50.39,30.75-193.16-1.06-231.56-31.81-38.39-45.9-161.97-104.07-155.97-58.17,6-75.13,52.79-75.13,52.79Z"/>
      <path class="cls-3" d="m39.48,191.09s27.87-9.75,55.74,16.96"/>
      <path class="cls-3" d="m231.48,251.51c-17.42,6.97-46.45,4.65-29.03,72"/>
      <path class="cls-3" d="m154.31,87.6c-14.15-9.29-45.51-12.7-48.99,11.65"/>
      <path class="cls-3" d="m92.34,391.78s26.37-37.77,49.19,31.11"/>
      <path class="cls-3" d="m237.59,461.21c-34.84,7.44-51.1-47.49-25.55,43.85"/>
      <path class="cls-3" d="m70.26,301.34s18.58-33.68,49.94-26.71"/>
      <path class="cls-3" d="m105.24,562.32s7.55-25.55,33.1-27.87"/>
      <path class="cls-3" d="m212.02,199.27s-47.9-31.35-73.89-27.87"/>
      <path class="cls-3" d="m186.83,712.65s-36.97-32.52-65.04-17.42"/>
      <path class="cls-5" d="m67.35,582.19s49.46,14.45,87.95,14.97,76.18-14.97,76.18-14.97v45.68s-40.35,14.19-76.18,13.94-87.95-13.94-87.95-13.94v-45.68Z"/>
      <rect class="cls-4" x="235" y="585.79" width="5.81" height="153.82"/>
      <rect class="cls-4" x="57.58" y="585.79" width="5.81" height="153.82"/>
    </g>
  </g>
</svg>