<?xml version="1.0" encoding="UTF-8"?>
<svg id="Calque_2" data-name="Calque 2" xmlns="http://www.w3.org/2000/svg" xmlns:xlink="http://www.w3.org/1999/xlink" viewBox="0 0 49.34 97.76">
  <defs>
    <style>
      .cls-1 {
        fill: #e8431e;
      }

      .cls-1, .cls-2, .cls-3, .cls-4 {
        stroke-miterlimit: 10;
      }

      .cls-1, .cls-3, .cls-4 {
        stroke: #1d1d1b;
      }

      .cls-2 {
        fill: none;
        stroke: #662f0c;
        stroke-width: 2px;
      }

      .cls-3 {
        fill: #fff;
      }

      .cls-4 {
        fill: url(#Dégradé_sans_nom_4);
      }
    </style>
    <linearGradient id="Dégradé_sans_nom_4" data-name="Dégradé sans nom 4" x1="11.3" y1="30.61" x2="37.88" y2="30.61" gradientUnits="userSpaceOnUse">
      <stop offset="0" stop-color="#ffe229"/>
      <stop offset="1" stop-color="#f08223"/>
    </linearGradient>
  </defs>
  <g id="skier">
    <g>
      <path class="cls-1" d="m40.97,43.42v48s.39,5.61-3.28,5.61-2.19-5.81-2.19-5.81l-1.09-47.81h6.56Z"/>
      <path class="cls-1" d="m7.82,43.64v48s-.39,5.61,3.29,5.61,2.19-5.81,2.19-5.81l1.1-47.81h-6.58Z"/>
      <ellipse class="cls-3" cx="24.67" cy="40.38" rx="24.17" ry="36.11"/>
      <ellipse class="cls-3" cx="24.67" cy="19.89" rx="18.03" ry="18.89"/>
      <ellipse class="cls-2" cx="24.67" cy="16.4" rx="18.03" ry="15.4"/>
      <polygon class="cls-4" points="11.3 26.55 37.88 26.55 37.88 33.45 35.56 34.68 29.62 34.68 25.28 32.73 22.14 34.68 14.4 34.68 11.3 33.53 11.3 26.55"/>
    </g>
  </g>
</svg>